<svg width="0" height="0" class="hidden">
  <symbol fill="none" xmlns="http://www.w3.org/2000/svg" viewBox="0 0 10 12" id="fire">
    <path d="M8.30681 5.5386C8.17267 5.34415 8.00937 5.17563 7.85773 5.0071C7.46697 4.6182 7.02371 4.33949 6.65045 3.93115C5.78144 2.98482 5.58898 1.42274 6.14304 0.223633C5.58898 0.372711 5.1049 0.709758 4.69081 1.07921C3.18025 2.4274 2.58536 4.80617 3.2969 6.8479C3.32023 6.91271 3.34355 6.97753 3.34355 7.06179C3.34355 7.20439 3.25607 7.33402 3.13943 7.38587C3.00528 7.45069 2.86531 7.4118 2.7545 7.30809C2.72139 7.27728 2.69371 7.23992 2.67284 7.19791C2.0138 6.27103 1.90882 4.94229 2.35207 3.87929C1.37808 4.7608 0.847345 6.25158 0.923164 7.6581C0.958158 7.98219 0.993151 8.30627 1.0923 8.63035C1.17395 9.01925 1.33142 9.40815 1.50639 9.75168C2.13628 10.873 3.22691 11.6767 4.39919 11.8388C5.6473 12.0138 6.98289 11.761 7.93938 10.8017C9.00668 9.72576 9.37995 8.00163 8.83172 6.52381L8.7559 6.35529C8.63342 6.05713 8.30681 5.5386 8.30681 5.5386ZM6.46382 9.62205C6.30051 9.77761 6.03223 9.94613 5.82227 10.0109C5.16905 10.2702 4.51584 9.90724 4.13091 9.47945C4.82495 9.29797 5.23904 8.72758 5.36152 8.15071C5.46067 7.63218 5.27403 7.20439 5.19821 6.7053C5.12823 6.22566 5.13989 5.81731 5.29736 5.37008C5.40818 5.61638 5.52482 5.86268 5.6648 6.05713C6.11388 6.7053 6.81958 6.99049 6.97122 7.872C6.99455 7.96274 7.00622 8.05349 7.00622 8.15071C7.02371 8.68221 6.81375 9.26556 6.46382 9.62205Z" fill="#A9B2BE"></path>
  </symbol>
  <symbol fill="none" xmlns="http://www.w3.org/2000/svg" viewBox="0 0 8 14" id="facebook">
    <path d="M5.01183 13.501V7.58071H7.00909L7.30597 5.26274H5.01183V3.78628C5.01183 3.1174 5.19819 2.65944 6.15817 2.65944H7.37459V0.592835C6.78273 0.529408 6.18782 0.498782 5.59258 0.501099C3.8272 0.501099 2.61512 1.57882 2.61512 3.5573V5.2584H0.630859V7.57638H2.61945V13.501H5.01183Z" fill="white"></path>
  </symbol>
  <symbol fill="none" xmlns="http://www.w3.org/2000/svg" viewBox="0 0 14 14" id="inst">
    <path fill-rule="evenodd" clip-rule="evenodd" d="M4.32023 0.539C5.01336 0.507091 5.23436 0.5 7 0.5C8.76564 0.5 8.98664 0.507682 9.67918 0.539C10.3717 0.570318 10.8445 0.680818 11.2581 0.840955C11.6912 1.00464 12.0842 1.2605 12.4092 1.59141C12.7401 1.91582 12.9954 2.30818 13.1585 2.74191C13.3192 3.15555 13.4291 3.62827 13.461 4.31964C13.4929 5.01395 13.5 5.23495 13.5 7C13.5 8.76564 13.4923 8.98664 13.461 9.67977C13.4297 10.3711 13.3192 10.8439 13.1585 11.2575C12.9954 11.6913 12.7397 12.0843 12.4092 12.4092C12.0842 12.7401 11.6912 12.9954 11.2581 13.1585C10.8445 13.3192 10.3717 13.4291 9.68036 13.461C8.98664 13.4929 8.76564 13.5 7 13.5C5.23436 13.5 5.01336 13.4923 4.32023 13.461C3.62886 13.4297 3.15614 13.3192 2.7425 13.1585C2.30873 12.9953 1.91571 12.7396 1.59082 12.4092C1.26013 12.0846 1.00423 11.6917 0.840955 11.2581C0.680818 10.8445 0.570909 10.3717 0.539 9.68036C0.507091 8.98604 0.5 8.76505 0.5 7C0.5 5.23436 0.507682 5.01336 0.539 4.32082C0.570318 3.62827 0.680818 3.15555 0.840955 2.74191C1.00447 2.30823 1.26057 1.91541 1.59141 1.59082C1.91584 1.26021 2.30846 1.00431 2.74191 0.840955C3.15555 0.680818 3.62886 0.570909 4.32023 0.539ZM9.62659 1.709C8.94114 1.67768 8.7355 1.67118 7 1.67118C5.2645 1.67118 5.05886 1.67768 4.37341 1.709C3.73936 1.73795 3.39545 1.84373 3.16618 1.93295C2.86305 2.05114 2.64618 2.19118 2.41868 2.41868C2.20303 2.62848 2.03706 2.88389 1.93295 3.16618C1.84373 3.39545 1.73795 3.73936 1.709 4.37341C1.67768 5.05886 1.67118 5.2645 1.67118 7C1.67118 8.7355 1.67768 8.94114 1.709 9.62659C1.73795 10.2606 1.84373 10.6045 1.93295 10.8338C2.03695 11.1157 2.203 11.3715 2.41868 11.5813C2.62845 11.797 2.88432 11.963 3.16618 12.067C3.39545 12.1563 3.73936 12.262 4.37341 12.291C5.05886 12.3223 5.26391 12.3288 7 12.3288C8.73609 12.3288 8.94114 12.3223 9.62659 12.291C10.2606 12.262 10.6045 12.1563 10.8338 12.067C11.137 11.9489 11.3538 11.8088 11.5813 11.5813C11.797 11.3715 11.963 11.1157 12.067 10.8338C12.1563 10.6045 12.262 10.2606 12.291 9.62659C12.3223 8.94114 12.3288 8.7355 12.3288 7C12.3288 5.2645 12.3223 5.05886 12.291 4.37341C12.262 3.73936 12.1563 3.39545 12.067 3.16618C11.9489 2.86305 11.8088 2.64618 11.5813 2.41868C11.3715 2.20304 11.1161 2.03708 10.8338 1.93295C10.6045 1.84373 10.2606 1.73795 9.62659 1.709ZM6.16977 9.00377C6.63343 9.19678 7.14972 9.22283 7.63046 9.07747C8.11119 8.93211 8.52655 8.62436 8.80559 8.20678C9.08463 7.7892 9.21003 7.2877 9.16039 6.78793C9.11075 6.28815 8.88914 5.82112 8.53341 5.46659C8.30664 5.23996 8.03244 5.06643 7.73056 4.9585C7.42868 4.85056 7.10662 4.81089 6.78757 4.84236C6.46851 4.87383 6.16041 4.97565 5.88543 5.14049C5.61045 5.30532 5.37544 5.52908 5.19732 5.79564C5.01919 6.0622 4.90238 6.36494 4.8553 6.68207C4.80823 6.99919 4.83204 7.32281 4.92505 7.62962C5.01805 7.93644 5.17792 8.21881 5.39315 8.45643C5.60839 8.69404 5.87362 8.88097 6.16977 9.00377ZM4.63755 4.63755C4.94779 4.3273 5.3161 4.08121 5.72145 3.9133C6.1268 3.7454 6.56125 3.65898 7 3.65898C7.43875 3.65898 7.8732 3.7454 8.27855 3.9133C8.6839 4.08121 9.05221 4.3273 9.36245 4.63755C9.6727 4.94779 9.91879 5.3161 10.0867 5.72145C10.2546 6.1268 10.341 6.56125 10.341 7C10.341 7.43875 10.2546 7.8732 10.0867 8.27855C9.91879 8.6839 9.6727 9.05221 9.36245 9.36245C8.73589 9.98902 7.88609 10.341 7 10.341C6.11391 10.341 5.26411 9.98902 4.63755 9.36245C4.01098 8.73589 3.65898 7.88609 3.65898 7C3.65898 6.11391 4.01098 5.26411 4.63755 4.63755ZM11.082 4.15655C11.1589 4.08402 11.2204 3.99681 11.263 3.90008C11.3056 3.80334 11.3283 3.69904 11.3298 3.59337C11.3314 3.48769 11.3117 3.38278 11.272 3.28484C11.2322 3.18691 11.1733 3.09794 11.0985 3.0232C11.0238 2.94847 10.9348 2.88949 10.8369 2.84976C10.7389 2.81003 10.634 2.79035 10.5284 2.79189C10.4227 2.79343 10.3184 2.81616 10.2217 2.85873C10.1249 2.9013 10.0377 2.96285 9.96518 3.03973C9.82414 3.18924 9.74692 3.38784 9.74991 3.59337C9.75291 3.79889 9.83589 3.99516 9.98123 4.1405C10.1266 4.28584 10.3228 4.36882 10.5284 4.37181C10.7339 4.37481 10.9325 4.29759 11.082 4.15655Z" fill="white"></path>
  </symbol>
  <symbol fill="none" xmlns="http://www.w3.org/2000/svg" viewBox="0 0 13 12" id="telegram">
    <path d="M11.949 1.01082L1.0733 5.129C0.331071 5.42174 0.335365 5.82832 0.93712 6.00962L3.72936 6.86494L10.1898 2.86241C10.4953 2.6799 10.7744 2.77808 10.545 2.97805L5.31073 7.61666L5.11812 10.4434C5.40029 10.4434 5.52481 10.3163 5.68307 10.1664L7.03932 8.87133L9.86039 10.9175C10.3806 11.1988 10.7541 11.0542 10.8836 10.4446L12.7354 1.87457C12.925 1.12827 12.4453 0.790363 11.949 1.01082Z" fill="white"></path>
  </symbol>
  <symbol fill="none" xmlns="http://www.w3.org/2000/svg" viewBox="0 0 12 12" id="viber">
    <path d="M5.69611 0.22168C4.71777 0.235161 2.61588 0.387313 1.44157 1.40952C0.569342 2.23768 0.261676 3.44767 0.22969 4.94848C0.197705 6.4488 0.156074 9.26216 3.01545 10.0248H3.01697L3.01494 11.1881C3.01494 11.1881 2.99615 11.6585 3.32464 11.7548C3.71912 11.8714 3.95114 11.5141 4.32988 11.1279C4.53652 10.9161 4.82337 10.606 5.03914 10.3672C6.99379 10.5241 8.4976 10.1669 8.6692 10.1144C9.06318 9.99306 11.2971 9.7215 11.6606 6.90911C12.0363 4.01053 11.4778 2.17605 10.4726 1.34981C10.17 1.08499 8.94641 0.242384 6.22056 0.23131C6.22056 0.23131 6.02002 0.219272 5.69408 0.223124L5.69611 0.22168ZM5.72555 1.03684C6.00225 1.03492 6.17233 1.04503 6.17233 1.04503C8.47831 1.05466 9.58256 1.71334 9.83895 1.93386C10.6893 2.6248 11.1234 4.27776 10.8066 6.69918C10.5 9.04789 8.68748 9.19619 8.35341 9.29779C8.21126 9.34112 6.89022 9.65265 5.22953 9.55009C5.22953 9.55009 3.99277 10.9657 3.60641 11.3335C3.54549 11.3913 3.47441 11.4139 3.4277 11.4029C3.3617 11.387 3.34342 11.3123 3.34393 11.2035L3.35408 9.2689C0.93641 8.63333 1.07704 6.23935 1.10497 4.98603C1.13238 3.73223 1.38065 2.70473 2.11834 2.01379C3.11343 1.16011 4.89749 1.04214 5.72809 1.03636L5.72555 1.03684ZM5.91848 2.28968C5.87912 2.29157 5.84201 2.30766 5.81475 2.33466C5.7875 2.36166 5.77218 2.39753 5.77192 2.43491C5.77166 2.47228 5.78648 2.50834 5.81336 2.53568C5.84023 2.56302 5.87712 2.57957 5.91645 2.58195C6.74095 2.58676 7.41214 2.84051 7.96147 3.34848C8.50623 3.85212 8.78394 4.5368 8.79054 5.43526C8.79156 5.51567 8.86162 5.57971 8.94641 5.57971C8.98699 5.57921 9.02573 5.56356 9.05423 5.53617C9.08274 5.50877 9.09872 5.47183 9.09872 5.43334C9.09161 4.47806 8.78496 3.7019 8.17673 3.13952C7.57257 2.58099 6.80949 2.29546 5.91848 2.28968ZM3.90798 2.62432C3.80004 2.61015 3.69018 2.62994 3.59524 2.68065L3.59016 2.68162C3.37185 2.80055 3.17588 2.95222 3.00834 3.13037C3.00732 3.13229 3.00529 3.13229 3.00428 3.13422C2.86872 3.28974 2.79104 3.44141 2.77073 3.59067C2.76676 3.61293 2.76556 3.63556 2.76718 3.65808C2.76718 3.72356 2.77835 3.78808 2.80018 3.85068L2.80678 3.85549C2.87532 4.08661 3.04692 4.46987 3.41856 5.1093C3.63179 5.47908 3.87701 5.83153 4.1527 6.16183C4.28977 6.32747 4.43701 6.48588 4.59439 6.63562L4.66141 6.69918C4.8188 6.84748 4.98634 6.98807 5.16099 7.11808C5.50956 7.37958 5.88083 7.61265 6.27082 7.81479C6.94505 8.16773 7.3502 8.32999 7.59288 8.39547L7.59795 8.40221C7.68628 8.4296 7.77978 8.43863 7.87211 8.42869C8.0295 8.41136 8.19044 8.33721 8.35341 8.20721C8.35544 8.20721 8.35494 8.20625 8.35748 8.2048C8.54532 8.04591 8.70424 7.85813 8.82964 7.65205L8.83116 7.64723C8.94539 7.43923 8.90732 7.24182 8.73977 7.10796C8.73774 7.10796 8.3854 6.8287 8.21329 6.70833C8.03051 6.58555 7.84267 6.47143 7.64822 6.36647C7.38929 6.22924 7.12427 6.31543 7.01461 6.45025L6.78766 6.72181C6.67089 6.85807 6.4541 6.84026 6.4541 6.84026C4.87008 6.45699 4.44615 4.93596 4.44615 4.93596C4.44615 4.93596 4.42736 4.73084 4.57206 4.6201L4.85789 4.40439C4.99852 4.30087 5.0894 4.04953 4.9442 3.80349C4.83393 3.61874 4.71361 3.43954 4.58373 3.26663C4.44739 3.09742 4.30689 2.93126 4.16234 2.76829C4.09868 2.69267 4.00801 2.6418 3.90748 2.62528L3.90798 2.62432ZM6.18756 3.04803C6.14676 3.04688 6.10715 3.06115 6.07745 3.0877C6.04774 3.11425 6.03037 3.1509 6.02916 3.18959C6.02795 3.22828 6.04299 3.26585 6.07098 3.29402C6.09898 3.32219 6.13762 3.33867 6.17842 3.33982C6.76735 3.38074 7.20245 3.56419 7.52129 3.89353C7.84114 4.2248 7.99345 4.62732 7.98127 5.13096C7.98348 5.16799 8.00034 5.20286 8.02848 5.22862C8.05662 5.25438 8.09397 5.26912 8.13306 5.26991C8.17216 5.2707 8.21014 5.25748 8.23941 5.23288C8.26868 5.20829 8.28709 5.17413 8.29097 5.13722C8.30366 4.57147 8.12139 4.08131 7.74925 3.69564C7.37355 3.30563 6.84706 3.09233 6.20076 3.04755H6.18858L6.18756 3.04803ZM6.42263 3.83286C6.38353 3.83341 6.3461 3.84795 6.31785 3.87359C6.2896 3.89922 6.27262 3.93404 6.27032 3.97105C6.26625 4.05146 6.33124 4.12031 6.41653 4.12513C6.68206 4.13861 6.86077 4.20939 6.98161 4.32832C7.10345 4.44628 7.17859 4.62684 7.19281 4.88877C7.19804 4.92507 7.21743 4.9582 7.24716 4.9816C7.27689 5.005 7.31479 5.01697 7.35337 5.01516C7.39196 5.01334 7.42843 4.99787 7.45557 4.9718C7.48271 4.94572 7.49855 4.91094 7.49997 4.87433C7.48474 4.56425 7.39081 4.30713 7.2055 4.12465C7.01917 3.94264 6.75212 3.84827 6.4338 3.83238H6.42466L6.42263 3.83286Z" fill="white"></path>
  </symbol>
</svg>