<svg width="14" height="15" viewBox="0 0 14 15" fill="none" xmlns="http://www.w3.org/2000/svg">
<g clip-path="url(#clip0_1276_87)">
<path d="M6.99935 1.72363C5.84563 1.72363 4.71781 2.06575 3.75852 2.70673C2.79924 3.3477 2.05157 4.25874 1.61005 5.32465C1.16854 6.39055 1.05302 7.56344 1.2781 8.69499C1.50318 9.82655 2.05876 10.8659 2.87456 11.6818C3.69037 12.4976 4.72977 13.0531 5.86132 13.2782C6.99288 13.5033 8.16577 13.3878 9.23167 12.9463C10.2976 12.5048 11.2086 11.7571 11.8496 10.7978C12.4906 9.8385 12.8327 8.71069 12.8327 7.55696C12.8327 6.00987 12.2181 4.52614 11.1241 3.43218C10.0302 2.33821 8.54645 1.72363 6.99935 1.72363ZM9.25977 9.44551C9.23328 9.48558 9.19913 9.52003 9.15929 9.54687C9.11945 9.57371 9.0747 9.59241 9.0276 9.60189C8.98051 9.61138 8.93201 9.61147 8.88488 9.60215C8.83775 9.59283 8.79293 9.57429 8.753 9.54759L6.60195 8.08926V4.91374C6.60195 4.81704 6.64037 4.72431 6.70874 4.65594C6.77711 4.58756 6.86984 4.54915 6.96654 4.54915C7.06323 4.54915 7.15596 4.58756 7.22434 4.65594C7.29271 4.72431 7.33112 4.81704 7.33112 4.91374V7.7028L9.15404 8.93874C9.19441 8.96494 9.22919 8.99887 9.25638 9.03858C9.28357 9.07829 9.30263 9.12299 9.31246 9.1701C9.32229 9.21721 9.32269 9.2658 9.31365 9.31307C9.30461 9.36034 9.28629 9.40535 9.25977 9.44551ZM9.13216 3.99499C8.61918 3.68579 8.04538 3.49122 7.45013 3.42464C6.85488 3.35805 6.25227 3.42102 5.68365 3.60923C5.11503 3.79744 4.59385 4.10643 4.15587 4.515C3.71789 4.92357 3.37348 5.42205 3.14627 5.97624C2.91906 6.53044 2.81442 7.12722 2.83954 7.72566C2.86466 8.32409 3.01894 8.91001 3.2918 9.44321C3.56466 9.97642 3.94963 10.4443 4.42031 10.8147C4.89098 11.1851 5.43623 11.4494 6.01862 11.5893L5.9056 12.1617C5.23766 12.0062 4.61142 11.7076 4.0701 11.2866C3.52879 10.8655 3.08529 10.332 2.77023 9.72287C2.45517 9.11374 2.27606 8.44349 2.24525 7.75839C2.21444 7.07329 2.33267 6.38967 2.59178 5.75471C2.85089 5.11975 3.24471 4.54859 3.74605 4.08065C4.24739 3.61271 4.8443 3.25914 5.49559 3.04435C6.14687 2.82955 6.83702 2.75866 7.51837 2.83655C8.19972 2.91444 8.85605 3.13927 9.44206 3.49551L9.13216 3.99499Z" fill="#A9B2BE"/>
</g>
<defs>
<clipPath id="clip0_1276_87">
<rect width="14" height="14" fill="white" transform="translate(0 0.556641)"/>
</clipPath>
</defs>
</svg>
