<svg width="55" height="55" viewBox="0 0 55 55" fill="none" xmlns="http://www.w3.org/2000/svg">
<rect width="55" height="55" rx="10" fill="#000002"/>
<path d="M29.3007 15.8002H31.53V39.2002H29.3007V28.269H17.1991V39.2002H14.9699V15.8002H17.1991V26.0628H29.3007V15.8002Z" fill="#58B000"/>
<path d="M41.8801 18.0065H31.53V26.631H41.4024V28.8373H31.53V39.2002H29.3007V15.8002H41.8801V18.0065Z" fill="#58B000"/>
<path d="M48.87 37.9399C46.5028 42.4129 42.6843 45.9678 38.0286 48.0327C33.3729 50.0976 28.1508 50.5524 23.2023 49.324C18.2538 48.0956 13.8667 45.2553 10.7467 41.2602C7.62664 37.265 5.95508 32.3472 6.00092 27.2979C6.04675 22.2485 7.80731 17.3612 10.9994 13.4222C14.1914 9.48315 18.6294 6.72138 23.5994 5.58115C28.5694 4.44093 33.7824 4.98854 38.3998 7.1359C43.0173 9.28325 46.7707 12.9055 49.0563 17.42" stroke="#58B000" stroke-width="2"/>
</svg>
