<svg width="30" height="30" viewBox="0 0 30 30" fill="none" xmlns="http://www.w3.org/2000/svg">
<g filter="url(#filter0_d_1437_1022)">
<rect x="3" y="3" width="24" height="24" rx="6" fill="white"/>
<path d="M6.84375 10H23.1562C23.38 10 23.5946 10.0832 23.7529 10.2312C23.9111 10.3793 24 10.5801 24 10.7895C24 10.9989 23.9111 11.1997 23.7529 11.3477C23.5946 11.4958 23.38 11.5789 23.1562 11.5789H6.84375C6.61997 11.5789 6.40536 11.4958 6.24713 11.3477C6.08889 11.1997 6 10.9989 6 10.7895C6 10.5801 6.08889 10.3793 6.24713 10.2312C6.40536 10.0832 6.61997 10 6.84375 10ZM9.375 15C9.375 14.7906 9.46389 14.5898 9.62213 14.4418C9.78036 14.2937 9.99497 14.2105 10.2188 14.2105H19.7812C20.005 14.2105 20.2196 14.2937 20.3779 14.4418C20.5361 14.5898 20.625 14.7906 20.625 15C20.625 15.2094 20.5361 15.4102 20.3779 15.5582C20.2196 15.7063 20.005 15.7895 19.7812 15.7895H10.2188C9.99497 15.7895 9.78036 15.7063 9.62213 15.5582C9.46389 15.4102 9.375 15.2094 9.375 15ZM12.75 19.2105C12.75 19.0011 12.8389 18.8003 12.9971 18.6523C13.1554 18.5042 13.37 18.4211 13.5938 18.4211H16.4062C16.63 18.4211 16.8446 18.5042 17.0029 18.6523C17.1611 18.8003 17.25 19.0011 17.25 19.2105C17.25 19.4199 17.1611 19.6207 17.0029 19.7688C16.8446 19.9168 16.63 20 16.4062 20H13.5938C13.37 20 13.1554 19.9168 12.9971 19.7688C12.8389 19.6207 12.75 19.4199 12.75 19.2105Z" fill="#46A80F"/>
</g>
<defs>
<filter id="filter0_d_1437_1022" x="0" y="0" width="30" height="30" filterUnits="userSpaceOnUse" color-interpolation-filters="sRGB">
<feFlood flood-opacity="0" result="BackgroundImageFix"/>
<feColorMatrix in="SourceAlpha" type="matrix" values="0 0 0 0 0 0 0 0 0 0 0 0 0 0 0 0 0 0 127 0" result="hardAlpha"/>
<feOffset/>
<feGaussianBlur stdDeviation="1.5"/>
<feComposite in2="hardAlpha" operator="out"/>
<feColorMatrix type="matrix" values="0 0 0 0 0 0 0 0 0 0 0 0 0 0 0 0 0 0 0.06 0"/>
<feBlend mode="normal" in2="BackgroundImageFix" result="effect1_dropShadow_1437_1022"/>
<feBlend mode="normal" in="SourceGraphic" in2="effect1_dropShadow_1437_1022" result="shape"/>
</filter>
</defs>
</svg>
