<svg width="36" height="36" viewBox="0 0 36 36" fill="none" xmlns="http://www.w3.org/2000/svg">
<g filter="url(#filter0_d_1437_1022)">
<rect x="3" y="3" width="30" height="30" rx="6" fill="white"/>
<path d="M7.80469 11.75H28.1953C28.475 11.75 28.7433 11.854 28.9411 12.039C29.1389 12.2241 29.25 12.4751 29.25 12.7368C29.25 12.9986 29.1389 13.2496 28.9411 13.4346C28.7433 13.6197 28.475 13.7237 28.1953 13.7237H7.80469C7.52497 13.7237 7.2567 13.6197 7.05891 13.4346C6.86112 13.2496 6.75 12.9986 6.75 12.7368C6.75 12.4751 6.86112 12.2241 7.05891 12.039C7.2567 11.854 7.52497 11.75 7.80469 11.75ZM10.9688 18C10.9688 17.7383 11.0799 17.4873 11.2777 17.3022C11.4755 17.1171 11.7437 17.0132 12.0234 17.0132H23.9766C24.2563 17.0132 24.5245 17.1171 24.7223 17.3022C24.9201 17.4873 25.0312 17.7383 25.0312 18C25.0312 18.2617 24.9201 18.5127 24.7223 18.6978C24.5245 18.8829 24.2563 18.9868 23.9766 18.9868H12.0234C11.7437 18.9868 11.4755 18.8829 11.2777 18.6978C11.0799 18.5127 10.9688 18.2617 10.9688 18ZM15.1875 23.2632C15.1875 23.0014 15.2986 22.7504 15.4964 22.5654C15.6942 22.3803 15.9625 22.2763 16.2422 22.2763H19.7578C20.0375 22.2763 20.3058 22.3803 20.5036 22.5654C20.7014 22.7504 20.8125 23.0014 20.8125 23.2632C20.8125 23.5249 20.7014 23.7759 20.5036 23.961C20.3058 24.146 20.0375 24.25 19.7578 24.25H16.2422C15.9625 24.25 15.6942 24.146 15.4964 23.961C15.2986 23.7759 15.1875 23.5249 15.1875 23.2632Z" fill="#46A80F"/>
</g>
<defs>
<filter id="filter0_d_1437_1022" x="0" y="0" width="36" height="36" filterUnits="userSpaceOnUse" color-interpolation-filters="sRGB">
<feFlood flood-opacity="0" result="BackgroundImageFix"/>
<feColorMatrix in="SourceAlpha" type="matrix" values="0 0 0 0 0 0 0 0 0 0 0 0 0 0 0 0 0 0 127 0" result="hardAlpha"/>
<feOffset/>
<feGaussianBlur stdDeviation="1.5"/>
<feComposite in2="hardAlpha" operator="out"/>
<feColorMatrix type="matrix" values="0 0 0 0 0 0 0 0 0 0 0 0 0 0 0 0 0 0 0.06 0"/>
<feBlend mode="normal" in2="BackgroundImageFix" result="effect1_dropShadow_1437_1022"/>
<feBlend mode="normal" in="SourceGraphic" in2="effect1_dropShadow_1437_1022" result="shape"/>
</filter>
</defs>
</svg>
