<svg width="14" height="15" viewBox="0 0 14 15" fill="none" xmlns="http://www.w3.org/2000/svg">
<path d="M10.3068 6.5386C10.1727 6.34415 10.0094 6.17563 9.85773 6.0071C9.46697 5.6182 9.02371 5.33949 8.65045 4.93115C7.78144 3.98482 7.58898 2.42274 8.14304 1.22363C7.58898 1.37271 7.1049 1.70976 6.69081 2.07921C5.18025 3.4274 4.58536 5.80617 5.2969 7.8479C5.32023 7.91271 5.34355 7.97753 5.34355 8.06179C5.34355 8.20439 5.25607 8.33402 5.13943 8.38587C5.00528 8.45069 4.86531 8.4118 4.7545 8.30809C4.72139 8.27728 4.69371 8.23992 4.67284 8.19791C4.0138 7.27103 3.90882 5.94229 4.35207 4.87929C3.37808 5.7608 2.84734 7.25158 2.92316 8.6581C2.95816 8.98219 2.99315 9.30627 3.0923 9.63035C3.17395 10.0193 3.33142 10.4082 3.50639 10.7517C4.13628 11.873 5.22691 12.6767 6.39919 12.8388C7.6473 13.0138 8.98289 12.761 9.93938 11.8017C11.0067 10.7258 11.3799 9.00163 10.8317 7.52381L10.7559 7.35529C10.6334 7.05713 10.3068 6.5386 10.3068 6.5386ZM8.46382 10.622C8.30051 10.7776 8.03223 10.9461 7.82227 11.0109C7.16905 11.2702 6.51584 10.9072 6.13091 10.4795C6.82495 10.298 7.23904 9.72758 7.36152 9.15071C7.46067 8.63218 7.27403 8.20439 7.19821 7.7053C7.12823 7.22566 7.13989 6.81731 7.29736 6.37008C7.40818 6.61638 7.52482 6.86268 7.6648 7.05713C8.11388 7.7053 8.81958 7.99049 8.97122 8.872C8.99455 8.96274 9.00622 9.05349 9.00622 9.15071C9.02371 9.68221 8.81375 10.2656 8.46382 10.622Z" fill="#46A80F"/>
</svg>
