<svg width="48" height="48" viewBox="0 0 48 48" fill="none" xmlns="http://www.w3.org/2000/svg">
<rect x="0.666617" y="0.666617" width="46.6632" height="46.6632" rx="23.3316" stroke="#46A80F" stroke-width="1.33323"/>
<path fill-rule="evenodd" clip-rule="evenodd" d="M19.0502 12.071C20.3298 12.0121 20.7378 11.999 23.9971 11.999C27.2565 11.999 27.6645 12.0132 28.943 12.071C30.2214 12.1288 31.0941 12.3328 31.8576 12.6284C32.6572 12.9306 33.3826 13.4029 33.9826 14.0138C34.5934 14.6126 35.0647 15.337 35.3657 16.1376C35.6625 16.9012 35.8653 17.7739 35.9242 19.0501C35.9832 20.3319 35.9962 20.7398 35.9962 23.9981C35.9962 27.2575 35.9821 27.6655 35.9242 28.945C35.8664 30.2213 35.6625 31.094 35.3657 31.8575C35.0647 32.6583 34.5927 33.3838 33.9826 33.9836C33.3826 34.5944 32.6572 35.0657 31.8576 35.3667C31.0941 35.6634 30.2214 35.8663 28.9451 35.9252C27.6645 35.9841 27.2565 35.9972 23.9971 35.9972C20.7378 35.9972 20.3298 35.983 19.0502 35.9252C17.774 35.8674 16.9013 35.6634 16.1377 35.3667C15.337 35.0656 14.6115 34.5936 14.0117 33.9836C13.4013 33.3843 12.9289 32.6592 12.6275 31.8586C12.3318 31.095 12.1289 30.2224 12.07 28.9461C12.0111 27.6644 11.998 27.2564 11.998 23.9981C11.998 20.7387 12.0122 20.3308 12.07 19.0523C12.1279 17.7739 12.3318 16.9012 12.6275 16.1376C12.9293 15.337 13.4021 14.6119 14.0128 14.0127C14.6117 13.4024 15.3365 12.93 16.1366 12.6284C16.9002 12.3328 17.7729 12.1299 19.0492 12.071H19.0502ZM28.8459 14.2309C27.5805 14.173 27.2009 14.161 23.9971 14.161C20.7934 14.161 20.4138 14.173 19.1484 14.2309C17.978 14.2843 17.3431 14.4796 16.9199 14.6443C16.3603 14.8624 15.9599 15.121 15.54 15.5409C15.1419 15.9282 14.8355 16.3997 14.6433 16.9208C14.4786 17.3441 14.2833 17.9789 14.2299 19.1494C14.1721 20.4148 14.1601 20.7944 14.1601 23.9981C14.1601 27.2019 14.1721 27.5815 14.2299 28.8468C14.2833 30.0173 14.4786 30.6522 14.6433 31.0754C14.8353 31.5957 15.1418 32.0681 15.54 32.4553C15.9272 32.8535 16.3995 33.16 16.9199 33.352C17.3431 33.5167 17.978 33.7119 19.1484 33.7654C20.4138 33.8232 20.7923 33.8352 23.9971 33.8352C27.202 33.8352 27.5805 33.8232 28.8459 33.7654C30.0163 33.7119 30.6512 33.5167 31.0744 33.352C31.634 33.1338 32.0344 32.8753 32.4543 32.4553C32.8525 32.0681 33.159 31.5957 33.351 31.0754C33.5157 30.6522 33.711 30.0173 33.7644 28.8468C33.8222 27.5815 33.8342 27.2019 33.8342 23.9981C33.8342 20.7944 33.8222 20.4148 33.7644 19.1494C33.711 17.9789 33.5157 17.3441 33.351 16.9208C33.1328 16.3612 32.8743 15.9609 32.4543 15.5409C32.067 15.1429 31.5955 14.8365 31.0744 14.6443C30.6512 14.4796 30.0163 14.2843 28.8459 14.2309ZM22.4645 27.6971C23.3205 28.0534 24.2735 28.1015 25.161 27.8332C26.0484 27.5648 26.8152 26.9967 27.3303 26.2259C27.8454 25.455 28.0769 24.5292 27.9853 23.6066C27.8936 22.684 27.4845 21.8219 26.8278 21.1674C26.4092 20.7491 25.9031 20.4287 25.3458 20.2295C24.7885 20.0302 24.194 19.957 23.605 20.0151C23.016 20.0732 22.4472 20.2611 21.9396 20.5654C21.432 20.8697 20.9982 21.2828 20.6694 21.7749C20.3405 22.2669 20.1249 22.8258 20.038 23.4112C19.9511 23.9966 19.9951 24.594 20.1667 25.1604C20.3384 25.7268 20.6336 26.2481 21.0309 26.6867C21.4282 27.1253 21.9178 27.4704 22.4645 27.6971ZM19.636 19.637C20.2087 19.0643 20.8886 18.61 21.6369 18.3C22.3852 17.9901 23.1872 17.8306 23.9971 17.8306C24.8071 17.8306 25.6091 17.9901 26.3574 18.3C27.1057 18.61 27.7856 19.0643 28.3583 19.637C28.931 20.2097 29.3853 20.8896 29.6952 21.6379C30.0052 22.3862 30.1647 23.1882 30.1647 23.9981C30.1647 24.8081 30.0052 25.6101 29.6952 26.3583C29.3853 27.1066 28.931 27.7865 28.3583 28.3593C27.2016 29.5159 25.6329 30.1657 23.9971 30.1657C22.3614 30.1657 20.7927 29.5159 19.636 28.3593C18.4794 27.2026 17.8296 25.6339 17.8296 23.9981C17.8296 22.3624 18.4794 20.7936 19.636 19.637ZM31.5326 18.7491C31.6745 18.6152 31.7881 18.4542 31.8667 18.2756C31.9453 18.097 31.9872 17.9045 31.9901 17.7094C31.9929 17.5143 31.9566 17.3207 31.8833 17.1399C31.8099 16.9591 31.701 16.7949 31.5631 16.6569C31.4251 16.5189 31.2609 16.4101 31.0801 16.3367C30.8993 16.2634 30.7056 16.227 30.5106 16.2299C30.3155 16.2327 30.1229 16.2747 29.9444 16.3533C29.7658 16.4319 29.6048 16.5455 29.4709 16.6874C29.2105 16.9634 29.068 17.33 29.0735 17.7094C29.0791 18.0888 29.2322 18.4511 29.5005 18.7194C29.7688 18.9877 30.1312 19.1409 30.5106 19.1464C30.89 19.152 31.2566 19.0094 31.5326 18.7491Z" fill="#46A80F"/>
</svg>
