<svg width="26" height="26" viewBox="0 0 26 26" fill="none" xmlns="http://www.w3.org/2000/svg">
<rect x="0.5" y="0.5" width="25" height="25" rx="12.5" stroke="#46A80F"/>
<path fill-rule="evenodd" clip-rule="evenodd" d="M10.3202 6.539C11.0134 6.50709 11.2344 6.5 13 6.5C14.7656 6.5 14.9866 6.50768 15.6792 6.539C16.3717 6.57032 16.8445 6.68082 17.2581 6.84095C17.6912 7.00464 18.0842 7.2605 18.4092 7.59141C18.7401 7.91582 18.9954 8.30818 19.1585 8.74191C19.3192 9.15555 19.4291 9.62827 19.461 10.3196C19.4929 11.014 19.5 11.235 19.5 13C19.5 14.7656 19.4923 14.9866 19.461 15.6798C19.4297 16.3711 19.3192 16.8439 19.1585 17.2575C18.9954 17.6913 18.7397 18.0843 18.4092 18.4092C18.0842 18.7401 17.6912 18.9954 17.2581 19.1585C16.8445 19.3192 16.3717 19.4291 15.6804 19.461C14.9866 19.4929 14.7656 19.5 13 19.5C11.2344 19.5 11.0134 19.4923 10.3202 19.461C9.62886 19.4297 9.15614 19.3192 8.7425 19.1585C8.30873 18.9953 7.91571 18.7396 7.59082 18.4092C7.26013 18.0846 7.00423 17.6917 6.84095 17.2581C6.68082 16.8445 6.57091 16.3717 6.539 15.6804C6.50709 14.986 6.5 14.765 6.5 13C6.5 11.2344 6.50768 11.0134 6.539 10.3208C6.57032 9.62827 6.68082 9.15555 6.84095 8.74191C7.00447 8.30823 7.26057 7.91541 7.59141 7.59082C7.91584 7.26021 8.30846 7.00431 8.74191 6.84095C9.15555 6.68082 9.62827 6.57091 10.3196 6.539H10.3202ZM15.6266 7.709C14.9411 7.67768 14.7355 7.67118 13 7.67118C11.2645 7.67118 11.0589 7.67768 10.3734 7.709C9.73936 7.73795 9.39545 7.84373 9.16618 7.93295C8.86305 8.05114 8.64618 8.19118 8.41868 8.41868C8.20303 8.62848 8.03706 8.88389 7.93295 9.16618C7.84373 9.39545 7.73795 9.73936 7.709 10.3734C7.67768 11.0589 7.67118 11.2645 7.67118 13C7.67118 14.7355 7.67768 14.9411 7.709 15.6266C7.73795 16.2606 7.84373 16.6045 7.93295 16.8338C8.03695 17.1157 8.203 17.3715 8.41868 17.5813C8.62845 17.797 8.88432 17.963 9.16618 18.067C9.39545 18.1563 9.73936 18.262 10.3734 18.291C11.0589 18.3223 11.2639 18.3288 13 18.3288C14.7361 18.3288 14.9411 18.3223 15.6266 18.291C16.2606 18.262 16.6045 18.1563 16.8338 18.067C17.137 17.9489 17.3538 17.8088 17.5813 17.5813C17.797 17.3715 17.963 17.1157 18.067 16.8338C18.1563 16.6045 18.262 16.2606 18.291 15.6266C18.3223 14.9411 18.3288 14.7355 18.3288 13C18.3288 11.2645 18.3223 11.0589 18.291 10.3734C18.262 9.73936 18.1563 9.39545 18.067 9.16618C17.9489 8.86305 17.8088 8.64618 17.5813 8.41868C17.3715 8.20304 17.1161 8.03708 16.8338 7.93295C16.6045 7.84373 16.2606 7.73795 15.6266 7.709ZM12.1698 15.0038C12.6334 15.1968 13.1497 15.2228 13.6305 15.0775C14.1112 14.9321 14.5265 14.6244 14.8056 14.2068C15.0846 13.7892 15.21 13.2877 15.1604 12.7879C15.1107 12.2882 14.8891 11.8211 14.5334 11.4666C14.3066 11.24 14.0324 11.0664 13.7306 10.9585C13.4287 10.8506 13.1066 10.8109 12.7876 10.8424C12.4685 10.8738 12.1604 10.9756 11.8854 11.1405C11.6105 11.3053 11.3754 11.5291 11.1973 11.7956C11.0192 12.0622 10.9024 12.3649 10.8553 12.6821C10.8082 12.9992 10.832 13.3228 10.925 13.6296C11.018 13.9364 11.1779 14.2188 11.3932 14.4564C11.6084 14.694 11.8736 14.881 12.1698 15.0038ZM10.6375 10.6375C10.9478 10.3273 11.3161 10.0812 11.7214 9.9133C12.1268 9.7454 12.5613 9.65898 13 9.65898C13.4387 9.65898 13.8732 9.7454 14.2786 9.9133C14.6839 10.0812 15.0522 10.3273 15.3625 10.6375C15.6727 10.9478 15.9188 11.3161 16.0867 11.7214C16.2546 12.1268 16.341 12.5613 16.341 13C16.341 13.4387 16.2546 13.8732 16.0867 14.2786C15.9188 14.6839 15.6727 15.0522 15.3625 15.3625C14.7359 15.989 13.8861 16.341 13 16.341C12.1139 16.341 11.2641 15.989 10.6375 15.3625C10.011 14.7359 9.65898 13.8861 9.65898 13C9.65898 12.1139 10.011 11.2641 10.6375 10.6375ZM17.082 10.1565C17.1589 10.084 17.2204 9.99681 17.263 9.90008C17.3056 9.80334 17.3283 9.69904 17.3298 9.59337C17.3314 9.48769 17.3117 9.38278 17.272 9.28484C17.2322 9.18691 17.1733 9.09794 17.0985 9.0232C17.0238 8.94847 16.9348 8.88949 16.8369 8.84976C16.7389 8.81003 16.634 8.79035 16.5284 8.79189C16.4227 8.79343 16.3184 8.81616 16.2217 8.85873C16.1249 8.9013 16.0377 8.96285 15.9652 9.03973C15.8241 9.18924 15.7469 9.38784 15.7499 9.59337C15.7529 9.79889 15.8359 9.99516 15.9812 10.1405C16.1266 10.2858 16.3228 10.3688 16.5284 10.3718C16.7339 10.3748 16.9325 10.2976 17.082 10.1565Z" fill="#46A80F"/>
</svg>
