<svg width="98" height="46" viewBox="0 0 98 46" fill="none" xmlns="http://www.w3.org/2000/svg">
<path d="M12 31.5869V13.5869H14V21.5869H23V13.5869H33V15.5869H25V21.5869H33V23.5869H25V31.5869H23V23.5869H14V31.5869H12Z" fill="#58B000" stroke="#58B000" stroke-linecap="round" stroke-linejoin="round"/>
<path d="M39.6368 16.3704C38.1192 12.4252 35.2615 9.1399 31.5645 7.09034C27.8676 5.04077 23.5673 4.35768 19.4172 5.16078C15.2671 5.96387 11.532 8.20192 8.86658 11.4827C6.20112 14.7635 4.77532 18.8777 4.83904 23.1043C4.90277 27.3308 6.45196 31.4002 9.21511 34.5991C11.9783 37.798 15.7791 39.9225 19.9515 40.6001C24.1239 41.2777 28.4017 40.4653 32.0352 38.3052C35.6686 36.1451 38.426 32.7752 39.824 28.786" stroke="#58B000" stroke-width="3" stroke-linecap="round" stroke-linejoin="round"/>
<path d="M52.9365 16.5869H51.7334V13.0459C51.7334 12.2438 51.5306 11.6536 51.125 11.2754C50.7194 10.8971 50.1748 10.708 49.4912 10.708C48.7712 10.708 48.2197 10.9222 47.8369 11.3506C47.4495 11.779 47.2559 12.3441 47.2559 13.0459V16.5869H46.0527V6.78418H47.2559V10.7764H47.3242C47.4199 10.6214 47.5316 10.4824 47.6592 10.3594C47.8096 10.2227 47.9668 10.1019 48.1309 9.99707C48.3177 9.88314 48.5661 9.78743 48.876 9.70996C49.1859 9.62793 49.5094 9.58691 49.8467 9.58691C50.7308 9.58691 51.4691 9.85124 52.0615 10.3799C52.6449 10.9131 52.9365 11.7083 52.9365 12.7656V16.5869ZM62.2129 13.1553L62.1719 13.7295H55.9717C55.9717 14.1214 56.2041 14.5316 56.6689 14.96C57.1292 15.3929 57.7467 15.6094 58.5215 15.6094C59.0911 15.6094 59.5583 15.5023 59.9229 15.2881C60.2236 15.1058 60.4333 14.9417 60.5518 14.7959L60.6064 14.7002H62.0215C61.9941 14.7686 61.9645 14.8392 61.9326 14.9121C61.8734 15.0169 61.7617 15.1787 61.5977 15.3975C61.4199 15.6299 61.2126 15.8372 60.9756 16.0195C60.7477 16.1973 60.4128 16.359 59.9707 16.5049C59.5514 16.6507 59.0684 16.7236 58.5215 16.7236C57.3867 16.7236 56.4661 16.4001 55.7598 15.7529C55.0443 15.1058 54.6865 14.2399 54.6865 13.1553C54.6865 12.0798 55.042 11.2161 55.7529 10.5645C56.4593 9.91276 57.3594 9.58691 58.4531 9.58691C59.5378 9.58691 60.4378 9.91276 61.1533 10.5645C61.8597 11.2161 62.2129 12.0798 62.2129 13.1553ZM60.2715 11.3574C59.8158 10.9245 59.2096 10.708 58.4531 10.708C57.6875 10.708 57.0814 10.9245 56.6348 11.3574C56.1836 11.7904 55.958 12.2165 55.958 12.6357H60.9414C60.9414 12.2165 60.7181 11.7904 60.2715 11.3574ZM63.7646 14.666C63.7646 13.9642 64.0632 13.4447 64.6602 13.1074C65.2526 12.7747 66.0137 12.6084 66.9434 12.6084C67.4173 12.6084 67.8548 12.6654 68.2559 12.7793C68.6751 12.8978 68.9691 13.0094 69.1377 13.1143L69.4043 13.2852V12.2051C69.4043 11.7402 69.2334 11.3757 68.8916 11.1113C68.5498 10.8424 68.0348 10.708 67.3467 10.708C65.9749 10.708 65.2891 11.0817 65.2891 11.8291H64.0859C64.0905 11.0726 64.3981 10.5098 65.0088 10.1406C65.6149 9.77148 66.3942 9.58691 67.3467 9.58691C68.3037 9.58691 69.0853 9.81022 69.6914 10.2568C70.2975 10.708 70.6029 11.3574 70.6074 12.2051V14.7002C70.6074 15.0465 70.653 15.2881 70.7441 15.4248C70.8353 15.557 70.9857 15.623 71.1953 15.623C71.3776 15.623 71.4984 15.598 71.5576 15.5479L71.585 15.5342V16.6143C71.4437 16.6872 71.2386 16.7236 70.9697 16.7236C70.514 16.7236 70.1768 16.6257 69.958 16.4297C69.7848 16.2839 69.6572 16.1312 69.5752 15.9717L69.541 15.8896H69.4863C69.3724 16.0036 69.2562 16.0993 69.1377 16.1768C68.9964 16.2725 68.8415 16.3568 68.6729 16.4297C68.2262 16.6257 67.6816 16.7236 67.0391 16.7236C66.0684 16.7236 65.2799 16.5573 64.6738 16.2246C64.0677 15.8965 63.7646 15.377 63.7646 14.666ZM67.2168 13.7295C65.7357 13.7295 64.9951 14.0417 64.9951 14.666C64.9951 15.2949 65.7357 15.6094 67.2168 15.6094C67.6543 15.6094 68.0531 15.5615 68.4131 15.4658C68.7686 15.3792 69.0124 15.2972 69.1445 15.2197C69.2676 15.1559 69.3542 15.099 69.4043 15.0488V14.2627C69.3542 14.2126 69.2676 14.1556 69.1445 14.0918C68.9896 14.0189 68.748 13.9414 68.4199 13.8594C68.069 13.7728 67.668 13.7295 67.2168 13.7295ZM72.918 6.78418H74.1211V16.5869H72.918V6.78418ZM80.5605 10.8174H78.0176V13.9277C78.0176 15.0944 78.5303 15.6777 79.5557 15.6777C79.7744 15.6777 79.9863 15.6527 80.1914 15.6025C80.401 15.5524 80.5537 15.4977 80.6494 15.4385L80.7725 15.3564V16.4502C80.4079 16.637 79.9567 16.7282 79.4189 16.7236C78.6123 16.7236 77.9788 16.5026 77.5186 16.0605C77.0492 15.6185 76.8145 14.9577 76.8145 14.0781V10.8174H75.666V9.72363H76.8145V8.18555H78.0176V9.72363H80.5605V10.8174ZM89.1943 16.5869H87.9912V13.0459C87.9912 12.2438 87.7884 11.6536 87.3828 11.2754C86.9772 10.8971 86.4326 10.708 85.749 10.708C85.029 10.708 84.4775 10.9222 84.0947 11.3506C83.7074 11.779 83.5137 12.3441 83.5137 13.0459V16.5869H82.3105V6.78418H83.5137V10.7764H83.582C83.6777 10.6214 83.7894 10.4824 83.917 10.3594C84.0674 10.2227 84.2246 10.1019 84.3887 9.99707C84.5755 9.88314 84.8239 9.78743 85.1338 9.70996C85.4437 9.62793 85.7673 9.58691 86.1045 9.58691C86.9886 9.58691 87.7269 9.85124 88.3193 10.3799C88.9027 10.9131 89.1943 11.7083 89.1943 12.7656V16.5869ZM90.0215 9.72363H91.3135L93.9727 15.2402H94.0137L96.3789 9.72363H97.6846L94.5195 16.9766C94.1185 17.9108 93.7493 18.5693 93.4121 18.9521C93.0749 19.335 92.5713 19.5264 91.9014 19.5264C91.5322 19.5264 91.252 19.4899 91.0605 19.417L90.9512 19.3896V18.3369C91.1882 18.4281 91.4684 18.4736 91.792 18.4736C92.1611 18.4736 92.4437 18.3574 92.6396 18.125C92.8311 17.9017 93.0339 17.5189 93.248 16.9766L93.3438 16.7236L90.0215 9.72363Z" fill="white"/>
<path d="M47.7754 22.4502V22.7236H49.7852V23.8174H47.7754V29.5869H46.5654V23.8174H45.417V23.1475L46.5654 22.7236V22.293C46.5654 21.4134 46.8115 20.7526 47.3037 20.3105C47.7868 19.8685 48.4476 19.6475 49.2861 19.6475C49.5322 19.6475 49.7783 19.6794 50.0244 19.7432C50.2705 19.8115 50.4528 19.873 50.5713 19.9277L50.7422 20.0234V21.1035C50.4368 20.8346 50.0199 20.7002 49.4912 20.7002C48.9215 20.7002 48.4932 20.8369 48.2061 21.1104C47.9189 21.3792 47.7754 21.8258 47.7754 22.4502ZM52.0068 28.7461C51.2959 28.0944 50.9404 27.2308 50.9404 26.1553C50.9404 25.0843 51.2959 24.2207 52.0068 23.5645C52.7132 22.9128 53.6133 22.5869 54.707 22.5869C55.7917 22.5869 56.6917 22.9128 57.4072 23.5645C58.1136 24.2207 58.4668 25.0843 58.4668 26.1553C58.4668 27.2308 58.1136 28.0944 57.4072 28.7461C56.6917 29.3978 55.7917 29.7236 54.707 29.7236C53.6133 29.7236 52.7132 29.3978 52.0068 28.7461ZM56.5459 27.9189C57.0062 27.4587 57.2363 26.8708 57.2363 26.1553C57.2363 25.4398 57.0062 24.8519 56.5459 24.3916C56.0856 23.9359 55.4727 23.708 54.707 23.708C53.9368 23.708 53.3239 23.9359 52.8682 24.3916C52.4033 24.8473 52.1709 25.4352 52.1709 26.1553C52.1709 26.8753 52.4033 27.4632 52.8682 27.9189C53.3285 28.3792 53.9414 28.6094 54.707 28.6094C55.4635 28.6094 56.0765 28.3792 56.5459 27.9189ZM61.085 28.7461C60.374 28.0944 60.0186 27.2308 60.0186 26.1553C60.0186 25.0843 60.374 24.2207 61.085 23.5645C61.7913 22.9128 62.6914 22.5869 63.7852 22.5869C64.8698 22.5869 65.7699 22.9128 66.4854 23.5645C67.1917 24.2207 67.5449 25.0843 67.5449 26.1553C67.5449 27.2308 67.1917 28.0944 66.4854 28.7461C65.7699 29.3978 64.8698 29.7236 63.7852 29.7236C62.6914 29.7236 61.7913 29.3978 61.085 28.7461ZM65.624 27.9189C66.0843 27.4587 66.3145 26.8708 66.3145 26.1553C66.3145 25.4398 66.0843 24.8519 65.624 24.3916C65.1637 23.9359 64.5508 23.708 63.7852 23.708C63.015 23.708 62.402 23.9359 61.9463 24.3916C61.4814 24.8473 61.249 25.4352 61.249 26.1553C61.249 26.8753 61.4814 27.4632 61.9463 27.9189C62.4066 28.3792 63.0195 28.6094 63.7852 28.6094C64.5417 28.6094 65.1546 28.3792 65.624 27.9189ZM75.4199 19.7842H76.623V29.5869H75.4199V28.5615H75.3652C75.2923 28.68 75.1624 28.8167 74.9756 28.9717C74.8161 29.0993 74.6452 29.2155 74.4629 29.3203C74.2669 29.4297 74.0094 29.5231 73.6904 29.6006C73.376 29.6826 73.057 29.7236 72.7334 29.7236C71.6989 29.7236 70.8353 29.3955 70.1426 28.7393C69.4453 28.083 69.0967 27.2217 69.0967 26.1553C69.0967 25.098 69.4453 24.2367 70.1426 23.5713C70.8353 22.915 71.6989 22.5869 72.7334 22.5869C73.2894 22.5869 73.7839 22.6849 74.2168 22.8809C74.6497 23.0768 74.9528 23.2682 75.126 23.4551L75.3652 23.749H75.4199V19.7842ZM71.0244 24.3984C70.5596 24.8633 70.3271 25.4489 70.3271 26.1553C70.3271 26.8662 70.5596 27.4518 71.0244 27.9121C71.4847 28.377 72.1022 28.6094 72.877 28.6094C73.6517 28.6094 74.2692 28.377 74.7295 27.9121C75.1898 27.4518 75.4199 26.8662 75.4199 26.1553C75.4199 25.4261 75.1852 24.8359 74.7158 24.3848C74.2464 23.9336 73.6335 23.708 72.877 23.708C72.1022 23.708 71.4847 23.9382 71.0244 24.3984Z" fill="white"/>
<path d="M46.8389 39.7324C46.1279 39.0807 45.7725 38.2171 45.7725 37.1416C45.7725 36.0661 46.1279 35.2048 46.8389 34.5576C47.5407 33.9105 48.4408 33.5869 49.5391 33.5869C50.1634 33.5869 50.7217 33.6917 51.2139 33.9014C51.7197 34.1156 52.1025 34.373 52.3623 34.6738C52.9046 35.2982 53.1758 35.8701 53.1758 36.3896H51.9316C51.8861 36.1937 51.8086 36 51.6992 35.8086C51.5853 35.6126 51.4531 35.4417 51.3027 35.2959C51.1296 35.1318 50.8857 34.9928 50.5713 34.8789C50.2614 34.765 49.9173 34.708 49.5391 34.708C48.7689 34.708 48.1559 34.9359 47.7002 35.3916C47.2354 35.8473 47.0029 36.4307 47.0029 37.1416C47.0029 37.8525 47.2354 38.4382 47.7002 38.8984C48.1605 39.3633 48.7734 39.5957 49.5391 39.5957C49.9219 39.5957 50.2682 39.5387 50.5781 39.4248C50.8926 39.3109 51.1341 39.1673 51.3027 38.9941C51.6172 38.6706 51.8132 38.3698 51.8906 38.0918L51.9316 37.9141H53.1758C53.1758 38.4245 52.9046 38.9919 52.3623 39.6162C52.0934 39.9261 51.7106 40.1859 51.2139 40.3955C50.7217 40.6051 50.1634 40.71 49.5391 40.71C48.4453 40.71 47.5452 40.3841 46.8389 39.7324ZM55.7803 39.7461C55.0693 39.0944 54.7139 38.2308 54.7139 37.1553C54.7139 36.0843 55.0693 35.2207 55.7803 34.5645C56.4867 33.9128 57.3867 33.5869 58.4805 33.5869C59.5651 33.5869 60.4652 33.9128 61.1807 34.5645C61.887 35.2207 62.2402 36.0843 62.2402 37.1553C62.2402 38.2308 61.887 39.0944 61.1807 39.7461C60.4652 40.3978 59.5651 40.7236 58.4805 40.7236C57.3867 40.7236 56.4867 40.3978 55.7803 39.7461ZM60.3193 38.9189C60.7796 38.4587 61.0098 37.8708 61.0098 37.1553C61.0098 36.4398 60.7796 35.8519 60.3193 35.3916C59.859 34.9359 59.2461 34.708 58.4805 34.708C57.7103 34.708 57.0973 34.9359 56.6416 35.3916C56.1768 35.8473 55.9443 36.4352 55.9443 37.1553C55.9443 37.8753 56.1768 38.4632 56.6416 38.9189C57.1019 39.3792 57.7148 39.6094 58.4805 39.6094C59.237 39.6094 59.8499 39.3792 60.3193 38.9189ZM63.792 38.666C63.792 37.9642 64.0905 37.4447 64.6875 37.1074C65.2799 36.7747 66.041 36.6084 66.9707 36.6084C67.4447 36.6084 67.8822 36.6654 68.2832 36.7793C68.7025 36.8978 68.9964 37.0094 69.165 37.1143L69.4316 37.2852V36.2051C69.4316 35.7402 69.2607 35.3757 68.9189 35.1113C68.5771 34.8424 68.0622 34.708 67.374 34.708C66.0023 34.708 65.3164 35.0817 65.3164 35.8291H64.1133C64.1178 35.0726 64.4255 34.5098 65.0361 34.1406C65.6423 33.7715 66.4215 33.5869 67.374 33.5869C68.3311 33.5869 69.1126 33.8102 69.7188 34.2568C70.3249 34.708 70.6302 35.3574 70.6348 36.2051V38.7002C70.6348 39.0465 70.6803 39.2881 70.7715 39.4248C70.8626 39.557 71.013 39.623 71.2227 39.623C71.4049 39.623 71.5257 39.598 71.585 39.5479L71.6123 39.5342V40.6143C71.471 40.6872 71.266 40.7236 70.9971 40.7236C70.5413 40.7236 70.2041 40.6257 69.9854 40.4297C69.8122 40.2839 69.6846 40.1312 69.6025 39.9717L69.5684 39.8896H69.5137C69.3997 40.0036 69.2835 40.0993 69.165 40.1768C69.0238 40.2725 68.8688 40.3568 68.7002 40.4297C68.2536 40.6257 67.709 40.7236 67.0664 40.7236C66.0957 40.7236 65.3073 40.5573 64.7012 40.2246C64.0951 39.8965 63.792 39.377 63.792 38.666ZM67.2441 37.7295C65.763 37.7295 65.0225 38.0417 65.0225 38.666C65.0225 39.2949 65.763 39.6094 67.2441 39.6094C67.6816 39.6094 68.0804 39.5615 68.4404 39.4658C68.7959 39.3792 69.0397 39.2972 69.1719 39.2197C69.2949 39.1559 69.3815 39.099 69.4316 39.0488V38.2627C69.3815 38.2126 69.2949 38.1556 69.1719 38.0918C69.0169 38.0189 68.7754 37.9414 68.4473 37.8594C68.0964 37.7728 67.6953 37.7295 67.2441 37.7295ZM73.7314 39.7324C73.0205 39.0807 72.665 38.2171 72.665 37.1416C72.665 36.0661 73.0205 35.2048 73.7314 34.5576C74.4333 33.9105 75.3333 33.5869 76.4316 33.5869C77.056 33.5869 77.6143 33.6917 78.1064 33.9014C78.6123 34.1156 78.9951 34.373 79.2549 34.6738C79.7972 35.2982 80.0684 35.8701 80.0684 36.3896H78.8242C78.7786 36.1937 78.7012 36 78.5918 35.8086C78.4779 35.6126 78.3457 35.4417 78.1953 35.2959C78.0221 35.1318 77.7783 34.9928 77.4639 34.8789C77.154 34.765 76.8099 34.708 76.4316 34.708C75.6615 34.708 75.0485 34.9359 74.5928 35.3916C74.1279 35.8473 73.8955 36.4307 73.8955 37.1416C73.8955 37.8525 74.1279 38.4382 74.5928 38.8984C75.0531 39.3633 75.666 39.5957 76.4316 39.5957C76.8145 39.5957 77.1608 39.5387 77.4707 39.4248C77.7852 39.3109 78.0267 39.1673 78.1953 38.9941C78.5098 38.6706 78.7057 38.3698 78.7832 38.0918L78.8242 37.9141H80.0684C80.0684 38.4245 79.7972 38.9919 79.2549 39.6162C78.986 39.9261 78.6032 40.1859 78.1064 40.3955C77.6143 40.6051 77.056 40.71 76.4316 40.71C75.3379 40.71 74.4378 40.3841 73.7314 39.7324ZM88.7705 40.5869H87.5674V37.0459C87.5674 36.2438 87.3646 35.6536 86.959 35.2754C86.5534 34.8971 86.0088 34.708 85.3252 34.708C84.6051 34.708 84.0537 34.9222 83.6709 35.3506C83.2835 35.779 83.0898 36.3441 83.0898 37.0459V40.5869H81.8867V30.7842H83.0898V34.7764H83.1582C83.2539 34.6214 83.3656 34.4824 83.4932 34.3594C83.6436 34.2227 83.8008 34.1019 83.9648 33.9971C84.1517 33.8831 84.4001 33.7874 84.71 33.71C85.0199 33.6279 85.3434 33.5869 85.6807 33.5869C86.5648 33.5869 87.3031 33.8512 87.8955 34.3799C88.4788 34.9131 88.7705 35.7083 88.7705 36.7656V40.5869Z" fill="white"/>
</svg>
