<svg width="93" height="41" viewBox="0 0 93 41" fill="none" xmlns="http://www.w3.org/2000/svg">
<path d="M11 26.9184V12.8776C11 12.3929 11.3929 12 11.8776 12C12.3622 12 12.7551 12.3929 12.7551 12.8776V18.0204C12.7551 18.5727 13.2028 19.0204 13.7551 19.0204H19.6531C20.2053 19.0204 20.6531 18.5727 20.6531 18.0204V13C20.6531 12.4477 21.1008 12 21.6531 12H28.551C29.0357 12 29.4286 12.3929 29.4286 12.8776C29.4286 13.3622 29.0357 13.7551 28.551 13.7551H23.4082C22.8559 13.7551 22.4082 14.2028 22.4082 14.7551V18.0204C22.4082 18.5727 22.8559 19.0204 23.4082 19.0204H28.551C29.0357 19.0204 29.4286 19.4133 29.4286 19.898C29.4286 20.3826 29.0357 20.7755 28.551 20.7755H23.4082C22.8559 20.7755 22.4082 21.2232 22.4082 21.7755V26.9184C22.4082 27.403 22.0153 27.7959 21.5306 27.7959C21.046 27.7959 20.6531 27.403 20.6531 26.9184V21.7755C20.6531 21.2232 20.2053 20.7755 19.6531 20.7755H13.7551C13.2028 20.7755 12.7551 21.2232 12.7551 21.7755V26.9184C12.7551 27.403 12.3622 27.7959 11.8776 27.7959C11.3929 27.7959 11 27.403 11 26.9184Z" fill="#58B000" stroke="#58B000" stroke-linecap="round" stroke-linejoin="round"/>
<path d="M34.7833 14.3653C33.4515 10.9031 30.9438 8.0201 27.6995 6.2215C24.4552 4.42291 20.6815 3.82346 17.0396 4.52822C13.3977 5.23297 10.1199 7.19698 7.78087 10.076C5.4418 12.9551 4.19058 16.5655 4.24651 20.2745C4.30243 23.9836 5.66192 27.5546 8.08673 30.3619C10.5115 33.1691 13.847 35.0334 17.5085 35.628C21.17 36.2227 24.9239 35.5097 28.1125 33.6141C31.3011 31.7185 33.7208 28.7613 34.9476 25.2605" stroke="#58B000" stroke-width="2.3" stroke-linecap="round" stroke-linejoin="round"/>
<path d="M47.4268 15.9023H46.2236V12.3613C46.2236 11.5592 46.0208 10.9691 45.6152 10.5908C45.2096 10.2126 44.665 10.0234 43.9814 10.0234C43.2614 10.0234 42.71 10.2376 42.3271 10.666C41.9398 11.0944 41.7461 11.6595 41.7461 12.3613V15.9023H40.543V6.09961H41.7461V10.0918H41.8145C41.9102 9.93685 42.0218 9.79785 42.1494 9.6748C42.2998 9.53809 42.457 9.41732 42.6211 9.3125C42.8079 9.19857 43.0563 9.10286 43.3662 9.02539C43.6761 8.94336 43.9997 8.90234 44.3369 8.90234C45.221 8.90234 45.9593 9.16667 46.5518 9.69531C47.1351 10.2285 47.4268 11.0238 47.4268 12.0811V15.9023ZM56.7031 12.4707L56.6621 13.0449H50.4619C50.4619 13.4368 50.6943 13.847 51.1592 14.2754C51.6195 14.7083 52.237 14.9248 53.0117 14.9248C53.5814 14.9248 54.0485 14.8177 54.4131 14.6035C54.7139 14.4212 54.9235 14.2572 55.042 14.1113L55.0967 14.0156H56.5117C56.4844 14.084 56.4548 14.1546 56.4229 14.2275C56.3636 14.3324 56.252 14.4941 56.0879 14.7129C55.9102 14.9453 55.7028 15.1527 55.4658 15.335C55.238 15.5127 54.903 15.6745 54.4609 15.8203C54.0417 15.9661 53.5586 16.0391 53.0117 16.0391C51.877 16.0391 50.9564 15.7155 50.25 15.0684C49.5345 14.4212 49.1768 13.5553 49.1768 12.4707C49.1768 11.3952 49.5322 10.5316 50.2432 9.87988C50.9495 9.22819 51.8496 8.90234 52.9434 8.90234C54.028 8.90234 54.9281 9.22819 55.6436 9.87988C56.3499 10.5316 56.7031 11.3952 56.7031 12.4707ZM54.7617 10.6729C54.306 10.2399 53.6999 10.0234 52.9434 10.0234C52.1777 10.0234 51.5716 10.2399 51.125 10.6729C50.6738 11.1058 50.4482 11.5319 50.4482 11.9512H55.4316C55.4316 11.5319 55.2083 11.1058 54.7617 10.6729ZM58.2549 13.9814C58.2549 13.2796 58.5534 12.7601 59.1504 12.4229C59.7428 12.0902 60.5039 11.9238 61.4336 11.9238C61.9076 11.9238 62.3451 11.9808 62.7461 12.0947C63.1654 12.2132 63.4593 12.3249 63.6279 12.4297L63.8945 12.6006V11.5205C63.8945 11.0557 63.7236 10.6911 63.3818 10.4268C63.04 10.1579 62.5251 10.0234 61.8369 10.0234C60.4652 10.0234 59.7793 10.3971 59.7793 11.1445H58.5762C58.5807 10.388 58.8883 9.8252 59.499 9.45605C60.1051 9.08691 60.8844 8.90234 61.8369 8.90234C62.7939 8.90234 63.5755 9.12565 64.1816 9.57227C64.7878 10.0234 65.0931 10.6729 65.0977 11.5205V14.0156C65.0977 14.362 65.1432 14.6035 65.2344 14.7402C65.3255 14.8724 65.4759 14.9385 65.6855 14.9385C65.8678 14.9385 65.9886 14.9134 66.0479 14.8633L66.0752 14.8496V15.9297C65.9339 16.0026 65.7288 16.0391 65.46 16.0391C65.0042 16.0391 64.667 15.9411 64.4482 15.7451C64.2751 15.5993 64.1475 15.4466 64.0654 15.2871L64.0312 15.2051H63.9766C63.8626 15.319 63.7464 15.4147 63.6279 15.4922C63.4867 15.5879 63.3317 15.6722 63.1631 15.7451C62.7165 15.9411 62.1719 16.0391 61.5293 16.0391C60.5586 16.0391 59.7702 15.8727 59.1641 15.54C58.5579 15.2119 58.2549 14.6924 58.2549 13.9814ZM61.707 13.0449C60.2259 13.0449 59.4854 13.3571 59.4854 13.9814C59.4854 14.6104 60.2259 14.9248 61.707 14.9248C62.1445 14.9248 62.5433 14.877 62.9033 14.7812C63.2588 14.6947 63.5026 14.6126 63.6348 14.5352C63.7578 14.4714 63.8444 14.4144 63.8945 14.3643V13.5781C63.8444 13.528 63.7578 13.471 63.6348 13.4072C63.4798 13.3343 63.2383 13.2568 62.9102 13.1748C62.5592 13.0882 62.1582 13.0449 61.707 13.0449ZM67.4082 6.09961H68.6113V15.9023H67.4082V6.09961ZM75.0508 10.1328H72.5078V13.2432C72.5078 14.4098 73.0205 14.9932 74.0459 14.9932C74.2646 14.9932 74.4766 14.9681 74.6816 14.918C74.8913 14.8678 75.0439 14.8132 75.1396 14.7539L75.2627 14.6719V15.7656C74.8981 15.9525 74.4469 16.0436 73.9092 16.0391C73.1025 16.0391 72.4691 15.818 72.0088 15.376C71.5394 14.9339 71.3047 14.2731 71.3047 13.3936V10.1328H70.1562V9.03906H71.3047V7.50098H72.5078V9.03906H75.0508V10.1328ZM83.6846 15.9023H82.4814V12.3613C82.4814 11.5592 82.2786 10.9691 81.873 10.5908C81.4674 10.2126 80.9229 10.0234 80.2393 10.0234C79.5192 10.0234 78.9678 10.2376 78.585 10.666C78.1976 11.0944 78.0039 11.6595 78.0039 12.3613V15.9023H76.8008V6.09961H78.0039V10.0918H78.0723C78.168 9.93685 78.2796 9.79785 78.4072 9.6748C78.5576 9.53809 78.7148 9.41732 78.8789 9.3125C79.0658 9.19857 79.3141 9.10286 79.624 9.02539C79.9339 8.94336 80.2575 8.90234 80.5947 8.90234C81.4788 8.90234 82.2171 9.16667 82.8096 9.69531C83.3929 10.2285 83.6846 11.0238 83.6846 12.0811V15.9023ZM84.5117 9.03906H85.8037L88.4629 14.5557H88.5039L90.8691 9.03906H92.1748L89.0098 16.292C88.6087 17.2262 88.2396 17.8848 87.9023 18.2676C87.5651 18.6504 87.0615 18.8418 86.3916 18.8418C86.0225 18.8418 85.7422 18.8053 85.5508 18.7324L85.4414 18.7051V17.6523C85.6784 17.7435 85.9587 17.7891 86.2822 17.7891C86.6514 17.7891 86.9339 17.6729 87.1299 17.4404C87.3213 17.2171 87.5241 16.8343 87.7383 16.292L87.834 16.0391L84.5117 9.03906Z" fill="#141414"/>
<path d="M42.2656 20.1738V20.4473H44.2754V21.541H42.2656V27.3105H41.0557V21.541H39.9072V20.8711L41.0557 20.4473V20.0166C41.0557 19.137 41.3018 18.4762 41.7939 18.0342C42.277 17.5921 42.9378 17.3711 43.7764 17.3711C44.0225 17.3711 44.2686 17.403 44.5146 17.4668C44.7607 17.5352 44.943 17.5967 45.0615 17.6514L45.2324 17.7471V18.8271C44.9271 18.5583 44.5101 18.4238 43.9814 18.4238C43.4118 18.4238 42.9834 18.5605 42.6963 18.834C42.4092 19.1029 42.2656 19.5495 42.2656 20.1738ZM46.4971 26.4697C45.7861 25.818 45.4307 24.9544 45.4307 23.8789C45.4307 22.8079 45.7861 21.9443 46.4971 21.2881C47.2035 20.6364 48.1035 20.3105 49.1973 20.3105C50.2819 20.3105 51.182 20.6364 51.8975 21.2881C52.6038 21.9443 52.957 22.8079 52.957 23.8789C52.957 24.9544 52.6038 25.818 51.8975 26.4697C51.182 27.1214 50.2819 27.4473 49.1973 27.4473C48.1035 27.4473 47.2035 27.1214 46.4971 26.4697ZM51.0361 25.6426C51.4964 25.1823 51.7266 24.5944 51.7266 23.8789C51.7266 23.1634 51.4964 22.5755 51.0361 22.1152C50.5758 21.6595 49.9629 21.4316 49.1973 21.4316C48.4271 21.4316 47.8141 21.6595 47.3584 22.1152C46.8936 22.571 46.6611 23.1589 46.6611 23.8789C46.6611 24.599 46.8936 25.1868 47.3584 25.6426C47.8187 26.1029 48.4316 26.333 49.1973 26.333C49.9538 26.333 50.5667 26.1029 51.0361 25.6426ZM55.5752 26.4697C54.8643 25.818 54.5088 24.9544 54.5088 23.8789C54.5088 22.8079 54.8643 21.9443 55.5752 21.2881C56.2816 20.6364 57.1816 20.3105 58.2754 20.3105C59.36 20.3105 60.2601 20.6364 60.9756 21.2881C61.682 21.9443 62.0352 22.8079 62.0352 23.8789C62.0352 24.9544 61.682 25.818 60.9756 26.4697C60.2601 27.1214 59.36 27.4473 58.2754 27.4473C57.1816 27.4473 56.2816 27.1214 55.5752 26.4697ZM60.1143 25.6426C60.5745 25.1823 60.8047 24.5944 60.8047 23.8789C60.8047 23.1634 60.5745 22.5755 60.1143 22.1152C59.654 21.6595 59.041 21.4316 58.2754 21.4316C57.5052 21.4316 56.8923 21.6595 56.4365 22.1152C55.9717 22.571 55.7393 23.1589 55.7393 23.8789C55.7393 24.599 55.9717 25.1868 56.4365 25.6426C56.8968 26.1029 57.5098 26.333 58.2754 26.333C59.0319 26.333 59.6449 26.1029 60.1143 25.6426ZM69.9102 17.5078H71.1133V27.3105H69.9102V26.2852H69.8555C69.7826 26.4036 69.6527 26.5404 69.4658 26.6953C69.3063 26.8229 69.1354 26.9391 68.9531 27.0439C68.7572 27.1533 68.4997 27.2467 68.1807 27.3242C67.8662 27.4062 67.5472 27.4473 67.2236 27.4473C66.1891 27.4473 65.3255 27.1191 64.6328 26.4629C63.9355 25.8066 63.5869 24.9453 63.5869 23.8789C63.5869 22.8216 63.9355 21.9603 64.6328 21.2949C65.3255 20.6387 66.1891 20.3105 67.2236 20.3105C67.7796 20.3105 68.2741 20.4085 68.707 20.6045C69.14 20.8005 69.443 20.9919 69.6162 21.1787L69.8555 21.4727H69.9102V17.5078ZM65.5146 22.1221C65.0498 22.5869 64.8174 23.1725 64.8174 23.8789C64.8174 24.5898 65.0498 25.1755 65.5146 25.6357C65.9749 26.1006 66.5924 26.333 67.3672 26.333C68.1419 26.333 68.7594 26.1006 69.2197 25.6357C69.68 25.1755 69.9102 24.5898 69.9102 23.8789C69.9102 23.1497 69.6755 22.5596 69.2061 22.1084C68.7367 21.6572 68.1237 21.4316 67.3672 21.4316C66.5924 21.4316 65.9749 21.6618 65.5146 22.1221Z" fill="#141414"/>
<path d="M41.3291 36.1089C40.6182 35.4572 40.2627 34.5936 40.2627 33.5181C40.2627 32.4425 40.6182 31.5812 41.3291 30.9341C42.0309 30.2869 42.931 29.9634 44.0293 29.9634C44.6536 29.9634 45.2119 30.0682 45.7041 30.2778C46.21 30.492 46.5928 30.7495 46.8525 31.0503C47.3949 31.6746 47.666 32.2466 47.666 32.7661H46.4219C46.3763 32.5701 46.2988 32.3765 46.1895 32.1851C46.0755 31.9891 45.9434 31.8182 45.793 31.6724C45.6198 31.5083 45.376 31.3693 45.0615 31.2554C44.7516 31.1414 44.4076 31.0845 44.0293 31.0845C43.2591 31.0845 42.6462 31.3123 42.1904 31.7681C41.7256 32.2238 41.4932 32.8071 41.4932 33.5181C41.4932 34.229 41.7256 34.8146 42.1904 35.2749C42.6507 35.7397 43.2637 35.9722 44.0293 35.9722C44.4121 35.9722 44.7585 35.9152 45.0684 35.8013C45.3828 35.6873 45.6243 35.5438 45.793 35.3706C46.1074 35.047 46.3034 34.7463 46.3809 34.4683L46.4219 34.2905H47.666C47.666 34.8009 47.3949 35.3683 46.8525 35.9927C46.5837 36.3026 46.2008 36.5623 45.7041 36.772C45.2119 36.9816 44.6536 37.0864 44.0293 37.0864C42.9355 37.0864 42.0355 36.7606 41.3291 36.1089ZM50.2705 36.1226C49.5596 35.4709 49.2041 34.6073 49.2041 33.5317C49.2041 32.4608 49.5596 31.5972 50.2705 30.9409C50.9769 30.2892 51.877 29.9634 52.9707 29.9634C54.0553 29.9634 54.9554 30.2892 55.6709 30.9409C56.3773 31.5972 56.7305 32.4608 56.7305 33.5317C56.7305 34.6073 56.3773 35.4709 55.6709 36.1226C54.9554 36.7743 54.0553 37.1001 52.9707 37.1001C51.877 37.1001 50.9769 36.7743 50.2705 36.1226ZM54.8096 35.2954C55.2699 34.8351 55.5 34.2472 55.5 33.5317C55.5 32.8162 55.2699 32.2284 54.8096 31.7681C54.3493 31.3123 53.7363 31.0845 52.9707 31.0845C52.2005 31.0845 51.5876 31.3123 51.1318 31.7681C50.667 32.2238 50.4346 32.8117 50.4346 33.5317C50.4346 34.2518 50.667 34.8397 51.1318 35.2954C51.5921 35.7557 52.2051 35.9858 52.9707 35.9858C53.7272 35.9858 54.3402 35.7557 54.8096 35.2954ZM58.2822 35.0425C58.2822 34.3407 58.5807 33.8211 59.1777 33.4839C59.7702 33.1512 60.5312 32.9849 61.4609 32.9849C61.9349 32.9849 62.3724 33.0418 62.7734 33.1558C63.1927 33.2743 63.4867 33.3859 63.6553 33.4907L63.9219 33.6616V32.5815C63.9219 32.1167 63.751 31.7521 63.4092 31.4878C63.0674 31.2189 62.5524 31.0845 61.8643 31.0845C60.4925 31.0845 59.8066 31.4582 59.8066 32.2056H58.6035C58.6081 31.4491 58.9157 30.8862 59.5264 30.5171C60.1325 30.1479 60.9118 29.9634 61.8643 29.9634C62.8213 29.9634 63.6029 30.1867 64.209 30.6333C64.8151 31.0845 65.1204 31.7339 65.125 32.5815V35.0767C65.125 35.423 65.1706 35.6646 65.2617 35.8013C65.3529 35.9334 65.5033 35.9995 65.7129 35.9995C65.8952 35.9995 66.016 35.9744 66.0752 35.9243L66.1025 35.9106V36.9907C65.9613 37.0636 65.7562 37.1001 65.4873 37.1001C65.0316 37.1001 64.6943 37.0021 64.4756 36.8062C64.3024 36.6603 64.1748 36.5076 64.0928 36.3481L64.0586 36.2661H64.0039C63.89 36.38 63.7738 36.4757 63.6553 36.5532C63.514 36.6489 63.359 36.7332 63.1904 36.8062C62.7438 37.0021 62.1992 37.1001 61.5566 37.1001C60.5859 37.1001 59.7975 36.9338 59.1914 36.6011C58.5853 36.2729 58.2822 35.7534 58.2822 35.0425ZM61.7344 34.106C60.2533 34.106 59.5127 34.4181 59.5127 35.0425C59.5127 35.6714 60.2533 35.9858 61.7344 35.9858C62.1719 35.9858 62.5706 35.938 62.9307 35.8423C63.2861 35.7557 63.5299 35.6737 63.6621 35.5962C63.7852 35.5324 63.8717 35.4754 63.9219 35.4253V34.6392C63.8717 34.589 63.7852 34.5321 63.6621 34.4683C63.5072 34.3953 63.2656 34.3179 62.9375 34.2358C62.5866 34.1493 62.1855 34.106 61.7344 34.106ZM68.2217 36.1089C67.5107 35.4572 67.1553 34.5936 67.1553 33.5181C67.1553 32.4425 67.5107 31.5812 68.2217 30.9341C68.9235 30.2869 69.8236 29.9634 70.9219 29.9634C71.5462 29.9634 72.1045 30.0682 72.5967 30.2778C73.1025 30.492 73.4854 30.7495 73.7451 31.0503C74.2874 31.6746 74.5586 32.2466 74.5586 32.7661H73.3145C73.2689 32.5701 73.1914 32.3765 73.082 32.1851C72.9681 31.9891 72.8359 31.8182 72.6855 31.6724C72.5124 31.5083 72.2686 31.3693 71.9541 31.2554C71.6442 31.1414 71.3001 31.0845 70.9219 31.0845C70.1517 31.0845 69.5387 31.3123 69.083 31.7681C68.6182 32.2238 68.3857 32.8071 68.3857 33.5181C68.3857 34.229 68.6182 34.8146 69.083 35.2749C69.5433 35.7397 70.1562 35.9722 70.9219 35.9722C71.3047 35.9722 71.651 35.9152 71.9609 35.8013C72.2754 35.6873 72.5169 35.5438 72.6855 35.3706C73 35.047 73.196 34.7463 73.2734 34.4683L73.3145 34.2905H74.5586C74.5586 34.8009 74.2874 35.3683 73.7451 35.9927C73.4762 36.3026 73.0934 36.5623 72.5967 36.772C72.1045 36.9816 71.5462 37.0864 70.9219 37.0864C69.8281 37.0864 68.9281 36.7606 68.2217 36.1089ZM83.2607 36.9634H82.0576V33.4224C82.0576 32.6203 81.8548 32.0301 81.4492 31.6519C81.0436 31.2736 80.499 31.0845 79.8154 31.0845C79.0954 31.0845 78.5439 31.2987 78.1611 31.7271C77.7738 32.1554 77.5801 32.7205 77.5801 33.4224V36.9634H76.377V27.1606H77.5801V31.1528H77.6484C77.7441 30.9979 77.8558 30.8589 77.9834 30.7358C78.1338 30.5991 78.291 30.4784 78.4551 30.3735C78.6419 30.2596 78.8903 30.1639 79.2002 30.0864C79.5101 30.0044 79.8337 29.9634 80.1709 29.9634C81.055 29.9634 81.7933 30.2277 82.3857 30.7563C82.9691 31.2896 83.2607 32.0848 83.2607 33.1421V36.9634Z" fill="#141414"/>
</svg>
