<svg width="26" height="26" viewBox="0 0 26 26" fill="none" xmlns="http://www.w3.org/2000/svg">
<rect x="0.361111" y="0.361111" width="25.2778" height="25.2778" rx="12.6389" stroke="white" stroke-width="0.722222"/>
<path d="M12.6961 7.22168C11.7178 7.23516 9.61588 7.38731 8.44157 8.40952C7.56934 9.23768 7.26168 10.4477 7.22969 11.9485C7.19771 13.4488 7.15607 16.2622 10.0154 17.0248H10.017L10.0149 18.1881C10.0149 18.1881 9.99615 18.6585 10.3246 18.7548C10.7191 18.8714 10.9511 18.5141 11.3299 18.1279C11.5365 17.9161 11.8234 17.606 12.0391 17.3672C13.9938 17.5241 15.4976 17.1669 15.6692 17.1144C16.0632 16.9931 18.2971 16.7215 18.6606 13.9091C19.0363 11.0105 18.4778 9.17605 17.4726 8.34981C17.17 8.08499 15.9464 7.24238 13.2206 7.23131C13.2206 7.23131 13.02 7.21927 12.6941 7.22312L12.6961 7.22168ZM12.7256 8.03684C13.0022 8.03492 13.1723 8.04503 13.1723 8.04503C15.4783 8.05466 16.5826 8.71334 16.8389 8.93386C17.6893 9.6248 18.1234 11.2778 17.8066 13.6992V13.7001C17.5 16.0489 15.6875 16.1962 15.3534 16.2978C15.2113 16.3411 13.8902 16.6526 12.2295 16.5501C12.2295 16.5501 10.9928 17.9657 10.6064 18.3335C10.5455 18.3913 10.4744 18.4139 10.4277 18.4029C10.3617 18.387 10.3434 18.3123 10.3439 18.2035L10.3541 16.2689C7.93641 15.6333 8.07704 13.2394 8.10497 11.986C8.13238 10.7322 8.38065 9.70473 9.11834 9.01379C10.1134 8.16011 11.8975 8.04214 12.7281 8.03636L12.7256 8.03684ZM12.9185 9.28968C12.8791 9.29157 12.842 9.30766 12.8148 9.33466C12.7875 9.36166 12.7722 9.39753 12.7719 9.43491C12.7717 9.47228 12.7865 9.50834 12.8134 9.53568C12.8402 9.56302 12.8771 9.57957 12.9164 9.58195C13.741 9.58676 14.4121 9.84051 14.9615 10.3485C15.5062 10.8521 15.7839 11.5368 15.7905 12.4353C15.7916 12.5157 15.8616 12.5797 15.9464 12.5797C15.987 12.5792 16.0257 12.5636 16.0542 12.5362C16.0827 12.5088 16.0987 12.4718 16.0987 12.4333C16.0916 11.4781 15.785 10.7019 15.1767 10.1395C14.5726 9.58099 13.81 9.29546 12.919 9.28968H12.9185ZM10.908 9.62432C10.8 9.61015 10.6902 9.62994 10.5952 9.68065L10.5902 9.68162C10.3719 9.80055 10.1759 9.95222 10.0083 10.1304C10.0073 10.1323 10.0053 10.1323 10.0043 10.1342C9.86872 10.2897 9.79104 10.4414 9.77073 10.5907C9.76676 10.6129 9.76556 10.6356 9.76718 10.6581C9.76718 10.7236 9.77835 10.7881 9.80018 10.8507L9.80678 10.8555C9.87532 11.0866 10.0469 11.4699 10.4186 12.1093C10.6318 12.4791 10.877 12.8315 11.1527 13.1618C11.2898 13.3275 11.437 13.4859 11.5944 13.6356L11.6614 13.6992C11.8188 13.8475 11.9863 13.9881 12.161 14.1181C12.5096 14.3796 12.8808 14.6126 13.2708 14.8148C13.9451 15.1677 14.3502 15.33 14.5929 15.3955L14.598 15.4022C14.6863 15.4296 14.7798 15.4386 14.8721 15.4287C15.0295 15.4114 15.1904 15.3372 15.3534 15.2072C15.3554 15.2072 15.3549 15.2062 15.3575 15.2048C15.5453 15.0459 15.7042 14.8581 15.8296 14.652L15.8312 14.6472C15.9454 14.4392 15.9073 14.2418 15.7398 14.108C15.7377 14.108 15.3854 13.8287 15.2133 13.7083C15.0305 13.5855 14.8427 13.4714 14.6482 13.3665C14.3893 13.2292 14.1243 13.3154 14.0146 13.4502L13.7877 13.7218C13.6709 13.8581 13.4541 13.8403 13.4541 13.8403C11.8701 13.457 11.4461 11.936 11.4461 11.936C11.4461 11.936 11.4274 11.7308 11.5721 11.6201L11.8579 11.4044C11.9985 11.3009 12.0894 11.0495 11.9442 10.8035C11.8339 10.6187 11.7136 10.4395 11.5837 10.2666C11.4474 10.0974 11.3069 9.93126 11.1623 9.76829C11.0987 9.69267 11.008 9.6418 10.9075 9.62528L10.908 9.62432ZM13.1876 10.048C13.1468 10.0469 13.1072 10.0612 13.0774 10.0877C13.0477 10.1142 13.0304 10.1509 13.0292 10.1896C13.0279 10.2283 13.043 10.2658 13.071 10.294C13.099 10.3222 13.1376 10.3387 13.1784 10.3398C13.7674 10.3807 14.2025 10.5642 14.5213 10.8935C14.8411 11.2248 14.9935 11.6273 14.9813 12.131C14.9835 12.168 15.0003 12.2029 15.0285 12.2286C15.0566 12.2544 15.094 12.2691 15.1331 12.2699C15.1722 12.2707 15.2101 12.2575 15.2394 12.2329C15.2687 12.2083 15.2871 12.1741 15.291 12.1372C15.3037 11.5715 15.1214 11.0813 14.7492 10.6956C14.3735 10.3056 13.8471 10.0923 13.2008 10.0476H13.1886L13.1876 10.048ZM13.4226 10.8329C13.3835 10.8334 13.3461 10.848 13.3179 10.8736C13.2896 10.8992 13.2726 10.934 13.2703 10.9711C13.2663 11.0515 13.3312 11.1203 13.4165 11.1251C13.6821 11.1386 13.8608 11.2094 13.9816 11.3283C14.1035 11.4463 14.1786 11.6268 14.1928 11.8888C14.198 11.9251 14.2174 11.9582 14.2472 11.9816C14.2769 12.005 14.3148 12.017 14.3534 12.0152C14.392 12.0133 14.4284 11.9979 14.4556 11.9718C14.4827 11.9457 14.4986 11.9109 14.5 11.8743C14.4847 11.5642 14.3908 11.3071 14.2055 11.1246C14.0192 10.9426 13.7521 10.8483 13.4338 10.8324H13.4247L13.4226 10.8329Z" fill="white"/>
</svg>
