<svg width="48" height="48" viewBox="0 0 48 48" fill="none" xmlns="http://www.w3.org/2000/svg">
<rect x="0.666617" y="0.666617" width="46.6632" height="46.6632" rx="23.3316" stroke="#46A80F" stroke-width="1.33323"/>
<path d="M23.4361 13.332C21.6301 13.3569 17.75 13.6378 15.5822 15.5248C13.972 17.0536 13.4041 19.2873 13.345 22.0578C13.286 24.8274 13.2091 30.0209 18.4876 31.4288H18.4904L18.4866 33.5762C18.4866 33.5762 18.4519 34.4446 19.0583 34.6224C19.7866 34.8375 20.2149 34.178 20.914 33.4651C21.2955 33.074 21.825 32.5016 22.2233 32.0608C25.8316 32.3505 28.6077 31.691 28.9245 31.5941C29.6518 31.3701 33.7756 30.8688 34.4466 25.6771C35.1402 20.3263 34.1092 16.9398 32.2535 15.4146C31.6949 14.9257 29.4362 13.3703 24.4043 13.3498C24.4043 13.3498 24.0341 13.3276 23.4324 13.3347L23.4361 13.332ZM23.4905 14.8368C24.0012 14.8333 24.3152 14.8519 24.3152 14.8519C28.5721 14.8697 30.6105 16.0857 31.0838 16.4927C32.6537 17.7682 33.455 20.8196 32.8702 25.2896V25.2914C32.3041 29.6271 28.9582 29.8991 28.3415 30.0867C28.0791 30.1667 25.6405 30.7417 22.5748 30.5524C22.5748 30.5524 20.2917 33.1656 19.5785 33.8447C19.466 33.9513 19.3348 33.9931 19.2486 33.9727C19.1267 33.9433 19.093 33.8056 19.0939 33.6047L19.1127 30.0333C14.6496 28.8601 14.9092 24.4408 14.9608 22.1271C15.0114 19.8126 15.4697 17.9158 16.8315 16.6403C18.6684 15.0644 21.9619 14.8466 23.4951 14.8359L23.4905 14.8368ZM23.8466 17.1496C23.7739 17.1531 23.7054 17.1828 23.6551 17.2326C23.6048 17.2825 23.5765 17.3487 23.576 17.4177C23.5756 17.4867 23.6029 17.5532 23.6525 17.6037C23.7022 17.6542 23.7702 17.6847 23.8429 17.6891C25.3649 17.698 26.6039 18.1664 27.618 19.1042C28.6236 20.0339 29.1363 21.2978 29.1485 22.9564C29.1504 23.1048 29.2797 23.223 29.4362 23.223C29.5111 23.2221 29.5826 23.1932 29.6353 23.1427C29.6879 23.0921 29.7174 23.0239 29.7174 22.9528C29.7043 21.1894 29.1382 19.7566 28.0154 18.7184C26.9001 17.6873 25.4924 17.1603 23.8475 17.1496H23.8466ZM20.1352 17.7673C19.9359 17.7412 19.7331 17.7777 19.5579 17.8713L19.5485 17.8731C19.1455 18.0927 18.7837 18.3726 18.4744 18.7015C18.4726 18.7051 18.4688 18.7051 18.4669 18.7086C18.2167 18.9957 18.0733 19.2757 18.0358 19.5512C18.0285 19.5923 18.0263 19.6341 18.0293 19.6757C18.0293 19.7966 18.0499 19.9157 18.0902 20.0312L18.1024 20.0401C18.2289 20.4667 18.5457 21.1743 19.2317 22.3546C19.6254 23.0373 20.078 23.6879 20.5869 24.2976C20.84 24.6034 21.1118 24.8958 21.4023 25.1723L21.526 25.2896C21.8166 25.5634 22.1259 25.8229 22.4483 26.0629C23.0917 26.5456 23.7771 26.9759 24.497 27.349C25.7417 28.0006 26.4896 28.3001 26.9376 28.421L26.9469 28.4334C27.11 28.484 27.2826 28.5006 27.453 28.4823C27.7436 28.4503 28.0407 28.3134 28.3415 28.0734C28.3453 28.0734 28.3443 28.0717 28.349 28.069C28.6958 27.7757 28.9892 27.429 29.2206 27.0486L29.2235 27.0397C29.4343 26.6557 29.364 26.2913 29.0548 26.0442C29.051 26.0442 28.4006 25.5287 28.0829 25.3065C27.7455 25.0798 27.3987 24.8692 27.0397 24.6754C26.5617 24.4221 26.0725 24.5812 25.8701 24.8301L25.4511 25.3314C25.2356 25.5829 24.8354 25.55 24.8354 25.55C21.9112 24.8425 21.1287 22.0347 21.1287 22.0347C21.1287 22.0347 21.094 21.656 21.3611 21.4516L21.8887 21.0534C22.1484 20.8623 22.3161 20.3983 22.0481 19.9441C21.8445 19.6031 21.6224 19.2723 21.3826 18.9531C21.1309 18.6407 20.8716 18.334 20.6048 18.0331C20.4872 17.8935 20.3198 17.7996 20.1343 17.7691L20.1352 17.7673ZM24.3433 18.5495C24.268 18.5474 24.1949 18.5737 24.1401 18.6227C24.0852 18.6718 24.0532 18.7394 24.0509 18.8108C24.0487 18.8823 24.0765 18.9516 24.1281 19.0036C24.1798 19.0556 24.2512 19.086 24.3265 19.0882C25.4136 19.1637 26.2168 19.5024 26.8054 20.1103C27.3959 20.7218 27.677 21.4649 27.6545 22.3946C27.6586 22.463 27.6898 22.5274 27.7417 22.5749C27.7936 22.6225 27.8626 22.6497 27.9348 22.6511C28.0069 22.6526 28.077 22.6282 28.1311 22.5828C28.1851 22.5374 28.2191 22.4743 28.2263 22.4062C28.2497 21.3618 27.9132 20.457 27.2262 19.745C26.5327 19.025 25.5608 18.6313 24.3677 18.5486H24.3452L24.3433 18.5495ZM24.7773 19.9983C24.7051 19.9993 24.636 20.0262 24.5839 20.0735C24.5317 20.1208 24.5004 20.1851 24.4961 20.2534C24.4886 20.4019 24.6086 20.529 24.766 20.5379C25.2562 20.5627 25.5861 20.6934 25.8092 20.9129C26.0341 21.1307 26.1728 21.464 26.199 21.9476C26.2087 22.0146 26.2445 22.0757 26.2994 22.1189C26.3542 22.1621 26.4242 22.1842 26.4954 22.1809C26.5667 22.1775 26.634 22.149 26.6841 22.1008C26.7342 22.0527 26.7634 21.9885 26.7661 21.9209C26.7379 21.3485 26.5646 20.8738 26.2225 20.537C25.8785 20.201 25.3855 20.0268 24.7979 19.9974H24.781L24.7773 19.9983Z" fill="#46A80F"/>
</svg>
