<svg width="15" height="15" viewBox="0 0 15 15" fill="none" xmlns="http://www.w3.org/2000/svg">
<path d="M6.05085 1.36377C5.43529 1.36371 4.82575 1.4849 4.25703 1.72042C3.68831 1.95594 3.17155 2.30119 2.73627 2.73644C2.30098 3.17168 1.95569 3.68841 1.72011 4.25712C1.48453 4.82582 1.36328 5.43536 1.36328 6.05092C1.36322 6.66653 1.48442 7.27612 1.71997 7.84488C1.95552 8.41363 2.3008 8.93042 2.7361 9.36572C3.17139 9.80102 3.68817 10.1463 4.25692 10.3819C4.82567 10.6174 5.43525 10.7386 6.05085 10.7386C7.14476 10.7386 8.14934 10.3511 8.94708 9.72345L9.36506 10.1414C9.27923 10.3082 9.24884 10.498 9.27831 10.6832C9.30777 10.8685 9.39556 11.0394 9.5289 11.1713L11.7234 13.3807C12.064 13.7218 12.6215 13.7218 12.9625 13.3807L13.3805 12.9627C13.5442 12.798 13.636 12.5753 13.636 12.3431C13.636 12.111 13.5442 11.8882 13.3805 11.7236L11.1712 9.52903C11.0384 9.39659 10.8664 9.31054 10.6807 9.28369C10.4951 9.25684 10.3057 9.29061 10.1408 9.37999L9.72285 8.962C10.27 8.27157 10.6114 7.44093 10.7081 6.56532C10.8048 5.68971 10.6528 4.80458 10.2694 4.01141C9.88614 3.21825 9.28706 2.54917 8.54092 2.08088C7.79477 1.61259 6.93177 1.36405 6.05085 1.36377ZM6.05085 2.22935C7.06438 2.22935 8.03639 2.63198 8.75307 3.34867C9.46974 4.06535 9.87236 5.03738 9.87236 6.05092C9.87236 7.06447 9.46974 8.0365 8.75307 8.75318C8.03639 9.46986 7.06438 9.87249 6.05085 9.87249C5.03732 9.87249 4.0653 9.46986 3.34863 8.75318C2.63195 8.0365 2.22933 7.06447 2.22933 6.05092C2.22933 5.03738 2.63195 4.06535 3.34863 3.34867C4.0653 2.63198 5.03732 2.22935 6.05085 2.22935ZM3.63231 4.84187C3.37752 5.25456 3.24317 5.73025 3.24442 6.21525C3.24386 6.55849 3.31104 6.89847 3.44213 7.21569C3.57322 7.53291 3.76563 7.82114 4.00834 8.06384C4.25104 8.30655 4.53926 8.49897 4.85648 8.63006C5.1737 8.76115 5.51367 8.82834 5.8569 8.82777C6.39649 8.82666 6.92273 8.65992 7.36449 8.35007C7.2454 8.36111 7.12582 8.36589 7.00623 8.36441C6.56288 8.36554 6.12368 8.27906 5.71385 8.10993C5.30403 7.94081 4.93166 7.69237 4.61814 7.37889C4.30463 7.06541 4.05614 6.69308 3.88696 6.28327C3.71778 5.87347 3.63123 5.43427 3.63231 4.99092C3.63231 4.94124 3.62992 4.89156 3.63231 4.84187Z" fill="#404C5C"/>
</svg>
